<svg width="24" height="24" viewBox="0 0 24 24" fill="none" xmlns="http://www.w3.org/2000/svg">
<path fill-rule="evenodd" clip-rule="evenodd" d="M1.875 12C1.875 11.7016 1.99352 11.4155 2.2045 11.2045C2.41548 10.9935 2.70163 10.875 3 10.875H18.285L14.205 6.79501C14.0063 6.58175 13.8981 6.29968 13.9032 6.00823C13.9084 5.71678 14.0264 5.4387 14.2326 5.23258C14.4387 5.02646 14.7168 4.90839 15.0082 4.90325C15.2997 4.89811 15.5817 5.00629 15.795 5.20501L21.795 11.205C22.0057 11.416 22.124 11.7019 22.124 12C22.124 12.2981 22.0057 12.5841 21.795 12.795L15.795 18.795C15.5817 18.9937 15.2997 19.1019 15.0082 19.0968C14.7168 19.0916 14.4387 18.9736 14.2326 18.7674C14.0264 18.5613 13.9084 18.2832 13.9032 17.9918C13.8981 17.7003 14.0063 17.4183 14.205 17.205L18.285 13.125L3 13.125C2.70163 13.125 2.41548 13.0065 2.2045 12.7955C1.99352 12.5845 1.875 12.2984 1.875 12Z" fill="black"/>
</svg>
