<svg width="24" height="24" viewBox="0 0 24 24" fill="none" xmlns="http://www.w3.org/2000/svg">
<path fill-rule="evenodd" clip-rule="evenodd" d="M18.483 19.7901V19.7881L18.501 19.7451L21.5 4.62506V4.57706C21.5 4.20006 21.36 3.87106 21.058 3.67406C20.793 3.50106 20.488 3.48906 20.274 3.50506C20.0748 3.52307 19.8782 3.56332 19.688 3.62506C19.6069 3.65121 19.5268 3.68057 19.448 3.71306L19.435 3.71806L2.715 10.2771L2.71 10.2791C2.65917 10.2964 2.60941 10.3168 2.561 10.3401C2.44209 10.3935 2.328 10.4571 2.22 10.5301C2.005 10.6781 1.596 11.0261 1.665 11.5781C1.722 12.0361 2.037 12.3261 2.25 12.4771C2.37573 12.5652 2.5109 12.639 2.653 12.6971L2.685 12.7111L2.695 12.7141L2.702 12.7171L5.628 13.7021C5.618 13.8851 5.636 14.0721 5.685 14.2571L7.15 19.8161C7.23003 20.1191 7.40297 20.3894 7.64452 20.5891C7.88608 20.7888 8.18411 20.9078 8.49678 20.9294C8.80944 20.9511 9.12102 20.8742 9.38777 20.7097C9.65451 20.5451 9.86302 20.3012 9.984 20.0121L12.272 17.5661L16.201 20.5781L16.257 20.6021C16.614 20.7581 16.947 20.8071 17.252 20.7661C17.557 20.7241 17.799 20.5961 17.981 20.4511C18.1915 20.2804 18.3593 20.063 18.471 19.8161L18.479 19.7991L18.482 19.7931L18.483 19.7901ZM7.135 13.8751C7.11878 13.8134 7.12263 13.7481 7.14601 13.6888C7.16939 13.6294 7.21107 13.5791 7.265 13.5451L17.186 7.24506C17.186 7.24506 17.77 6.89006 17.749 7.24506C17.749 7.24506 17.853 7.30706 17.54 7.59806C17.244 7.87506 10.469 14.4161 9.783 15.0781C9.74486 15.1151 9.71813 15.1623 9.706 15.2141L8.6 19.4341L7.135 13.8751Z" fill="white"/>
</svg>
