<svg width="34" height="34" viewBox="0 0 34 34" fill="none" xmlns="http://www.w3.org/2000/svg">
<path d="M3.4 5.43996C3.21978 5.43741 3.04086 5.4707 2.87362 5.5379C2.70638 5.60511 2.55417 5.70488 2.42583 5.83142C2.29749 5.95796 2.19557 6.10874 2.12601 6.27501C2.05645 6.44128 2.02063 6.61972 2.02063 6.79996C2.02063 6.98019 2.05645 7.15863 2.12601 7.3249C2.19557 7.49117 2.29749 7.64195 2.42583 7.76849C2.55417 7.89503 2.70638 7.9948 2.87362 8.06201C3.04086 8.12921 3.21978 8.1625 3.4 8.15996H30.6C30.7802 8.1625 30.9591 8.12921 31.1264 8.06201C31.2936 7.9948 31.4458 7.89503 31.5742 7.76849C31.7025 7.64195 31.8044 7.49117 31.874 7.3249C31.9435 7.15863 31.9794 6.98019 31.9794 6.79996C31.9794 6.61972 31.9435 6.44128 31.874 6.27501C31.8044 6.10874 31.7025 5.95796 31.5742 5.83142C31.4458 5.70488 31.2936 5.60511 31.1264 5.5379C30.9591 5.4707 30.7802 5.43741 30.6 5.43996H3.4ZM3.4 15.64C3.21978 15.6374 3.04086 15.6707 2.87362 15.7379C2.70638 15.8051 2.55417 15.9049 2.42583 16.0314C2.29749 16.158 2.19557 16.3087 2.12601 16.475C2.05645 16.6413 2.02063 16.8197 2.02063 17C2.02063 17.1802 2.05645 17.3586 2.12601 17.5249C2.19557 17.6912 2.29749 17.842 2.42583 17.9685C2.55417 18.095 2.70638 18.1948 2.87362 18.262C3.04086 18.3292 3.21978 18.3625 3.4 18.36H30.6C30.7802 18.3625 30.9591 18.3292 31.1264 18.262C31.2936 18.1948 31.4458 18.095 31.5742 17.9685C31.7025 17.842 31.8044 17.6912 31.874 17.5249C31.9435 17.3586 31.9794 17.1802 31.9794 17C31.9794 16.8197 31.9435 16.6413 31.874 16.475C31.8044 16.3087 31.7025 16.158 31.5742 16.0314C31.4458 15.9049 31.2936 15.8051 31.1264 15.7379C30.9591 15.6707 30.7802 15.6374 30.6 15.64H3.4ZM3.4 25.84C3.21978 25.8374 3.04086 25.8707 2.87362 25.9379C2.70638 26.0051 2.55417 26.1049 2.42583 26.2314C2.29749 26.358 2.19557 26.5087 2.12601 26.675C2.05645 26.8413 2.02063 27.0197 2.02063 27.2C2.02063 27.3802 2.05645 27.5586 2.12601 27.7249C2.19557 27.8912 2.29749 28.042 2.42583 28.1685C2.55417 28.295 2.70638 28.3948 2.87362 28.462C3.04086 28.5292 3.21978 28.5625 3.4 28.56H30.6C30.7802 28.5625 30.9591 28.5292 31.1264 28.462C31.2936 28.3948 31.4458 28.295 31.5742 28.1685C31.7025 28.042 31.8044 27.8912 31.874 27.7249C31.9435 27.5586 31.9794 27.3802 31.9794 27.2C31.9794 27.0197 31.9435 26.8413 31.874 26.675C31.8044 26.5087 31.7025 26.358 31.5742 26.2314C31.4458 26.1049 31.2936 26.0051 31.1264 25.9379C30.9591 25.8707 30.7802 25.8374 30.6 25.84H3.4Z" fill="white"/>
</svg>
