<svg width="24" height="24" viewBox="0 0 24 24" fill="none" xmlns="http://www.w3.org/2000/svg">
<path d="M18 9.75H16.5C16.4994 9.15345 16.2622 8.5815 15.8403 8.15967C15.4185 7.73784 14.8466 7.5006 14.25 7.5V6C15.2442 6.00119 16.1973 6.39666 16.9003 7.09966C17.6033 7.80267 17.9988 8.7558 18 9.75Z" fill="white"/>
<path d="M21 9.75001H19.5C19.4984 8.35811 18.9448 7.02367 17.9606 6.03945C16.9763 5.05523 15.6419 4.50159 14.25 4.50001V3.00001C16.0396 3.00199 17.7554 3.71379 19.0208 4.97923C20.2862 6.24467 20.998 7.9604 21 9.75001ZM15.2498 16.1115L16.9298 14.4315C17.1546 14.2066 17.4406 14.0526 17.7521 13.9886C18.0637 13.9246 18.3872 13.9534 18.6825 14.0715L20.7285 14.8905C21.0301 15.0112 21.2886 15.2194 21.4706 15.4884C21.6527 15.7573 21.75 16.0747 21.75 16.3995V20.1203C21.7505 20.3414 21.7059 20.5603 21.6189 20.7636C21.5319 20.9669 21.4043 21.1504 21.2439 21.3026C21.0836 21.4549 20.8938 21.5729 20.6863 21.6493C20.4788 21.7257 20.2578 21.7589 20.037 21.747C5.69551 20.8545 2.79901 8.70751 2.26126 4.05601C2.23522 3.8286 2.25761 3.59826 2.32697 3.38013C2.39634 3.16201 2.51109 2.96104 2.66369 2.79044C2.81629 2.61984 3.00328 2.48349 3.21236 2.39034C3.42144 2.29719 3.64788 2.24937 3.87676 2.25001H7.53151C7.85632 2.25 8.17367 2.3473 8.44264 2.52938C8.71161 2.71146 8.91986 2.96995 9.04051 3.27151L9.85876 5.31751C9.97685 5.61284 10.0057 5.93633 9.94169 6.24788C9.8777 6.55944 9.72369 6.84538 9.49876 7.07026L7.81876 8.75026C7.81876 8.75026 8.75026 15.2993 15.2498 16.1115Z" fill="white"/>
</svg>
